<svg width="20" height="19" viewBox="0 0 20 19" fill="none" xmlns="http://www.w3.org/2000/svg">
<path d="M14 5.6499C14 3.44076 12.2091 1.6499 10 1.6499C7.79086 1.6499 6 3.44076 6 5.6499M19 8.84985V14.4499C19 15.57 19.0002 16.1301 18.7822 16.5579C18.5905 16.9343 18.2841 17.2401 17.9078 17.4319C17.48 17.6499 16.9203 17.6499 15.8002 17.6499H4.2002C3.08009 17.6499 2.51962 17.6499 2.0918 17.4319C1.71547 17.2401 1.40973 16.9343 1.21799 16.5579C1 16.1301 1 15.57 1 14.4499V8.84985C1 7.72975 1 7.16977 1.21799 6.74194C1.40973 6.36562 1.71547 6.05964 2.0918 5.86789C2.51962 5.6499 3.08009 5.6499 4.2002 5.6499H15.8002C16.9203 5.6499 17.48 5.6499 17.9078 5.86789C18.2841 6.05964 18.5905 6.36562 18.7822 6.74194C19.0002 7.16977 19 7.72975 19 8.84985Z" stroke="#C9C9C9" stroke-width="2" stroke-linecap="round" stroke-linejoin="round"/>
</svg>
