<svg width="26" height="26" viewBox="0 0 26 26" fill="none" xmlns="http://www.w3.org/2000/svg">
<path d="M22.0458 9.66622L21.6491 9.44551C21.5875 9.41124 21.5566 9.39404 21.5269 9.37622C21.231 9.199 20.9819 8.9537 20.7999 8.66076C20.7816 8.63129 20.7636 8.60082 20.7283 8.53973L20.7282 8.53943C20.6929 8.47846 20.6752 8.44779 20.6588 8.41719C20.4956 8.11243 20.4078 7.77307 20.4025 7.42738C20.402 7.39623 20.4025 7.36436 20.4035 7.30723L20.4039 7.28639L20.4115 6.83464C20.424 6.09144 20.4301 5.7199 20.3261 5.38671C20.2341 5.09196 20.0803 4.82021 19.8747 4.58982C19.6427 4.32983 19.3211 4.14448 18.6792 3.77463L18.6759 3.7727L18.1409 3.46443C17.4987 3.09433 17.1775 2.90936 16.8365 2.83879C16.5348 2.77636 16.2233 2.77885 15.9228 2.84633C15.5839 2.9224 15.267 3.11216 14.6343 3.49102L14.6294 3.49392L14.2461 3.72344C14.1855 3.75973 14.1548 3.77783 14.1245 3.79472C13.823 3.96233 13.4859 4.0556 13.1412 4.06666C13.1064 4.06778 13.0711 4.06778 13.0004 4.06778H12.9995C12.9293 4.06778 12.8944 4.06778 12.8597 4.06666C12.5142 4.05555 12.176 3.96187 11.8741 3.79356C11.8448 3.77722 11.8156 3.75973 11.7593 3.72589L11.7527 3.72194L11.3669 3.49035L11.364 3.48861C10.7275 3.10646 10.4089 2.91521 10.0683 2.83879C9.76652 2.77108 9.45349 2.76881 9.15073 2.83205C8.8085 2.90353 8.48632 3.09049 7.84225 3.4643L7.31395 3.77092C6.67322 4.14279 6.35332 4.32864 6.12218 4.58881C5.91768 4.81897 5.76452 5.09009 5.67303 5.38407C5.56962 5.71636 5.57545 6.08679 5.58791 6.8275L5.59565 7.28755C5.59683 7.35721 5.59761 7.39207 5.5971 7.42633C5.59197 7.77272 5.50377 8.11281 5.34006 8.41812C5.32387 8.44831 5.30643 8.47851 5.27159 8.53882C5.23673 8.59917 5.21931 8.62928 5.20124 8.6584C5.01845 8.95291 4.76769 9.19936 4.46998 9.37688C4.44053 9.39444 4.4103 9.41132 4.34932 9.44511L3.95762 9.66218L3.95748 9.66226C3.30588 10.0234 2.98014 10.2039 2.74311 10.4611C2.5334 10.6886 2.37462 10.9584 2.27791 11.2523C2.16875 11.5842 2.16959 11.9562 2.17128 12.6993L2.17129 12.7023L2.17267 13.3112L2.17269 13.3178C2.17436 14.0535 2.17519 14.4224 2.28442 14.7514C2.38134 15.0433 2.53934 15.3113 2.74787 15.5374C2.98332 15.7928 3.30647 15.9725 3.95183 16.3316L3.95392 16.3327L4.34212 16.5487L4.34763 16.5517C4.41006 16.5865 4.44227 16.6044 4.47323 16.623C4.76824 16.8007 5.0163 17.0461 5.19753 17.339C5.21711 17.3706 5.23591 17.4034 5.27349 17.4691C5.31061 17.5339 5.32939 17.5664 5.34655 17.5989C5.50545 17.8997 5.59131 18.2337 5.59711 18.5738C5.59774 18.6106 5.59716 18.648 5.5959 18.7227L5.58844 19.1642L5.58842 19.1659C5.57589 19.908 5.56962 20.2793 5.67356 20.6123C5.76558 20.907 5.91975 21.1787 6.12535 21.4091C6.35775 21.6696 6.6794 21.8552 7.32347 22.2264L7.85832 22.5346C8.50057 22.9047 8.82217 23.0897 9.16314 23.1602C9.46479 23.2227 9.7762 23.2201 10.0768 23.1526C10.4158 23.0765 10.7328 22.8867 11.366 22.5075L11.3701 22.5051L11.7534 22.2756C11.814 22.2393 11.8446 22.2212 11.8749 22.2043C12.1764 22.0367 12.5133 21.9434 12.8581 21.9323C12.8928 21.9312 12.9282 21.9312 12.9989 21.9312C13.0697 21.9312 13.1056 21.9312 13.1404 21.9323C13.4859 21.9435 13.8236 22.0371 14.1255 22.2054C14.1559 22.2223 14.1864 22.2406 14.2472 22.277L14.6329 22.5086L14.6337 22.5091C15.2716 22.8921 15.5906 23.0836 15.9316 23.1601C16.2334 23.2278 16.5459 23.2302 16.8487 23.167C17.1909 23.0955 17.5133 22.9085 18.1573 22.5347L18.6856 22.2281C19.3264 21.8562 19.6463 21.6703 19.8775 21.4102C20.082 21.18 20.2352 20.9089 20.3266 20.6149C20.4301 20.2826 20.4241 19.9123 20.4116 19.1716L20.4039 18.7115L20.4035 18.6883C20.4025 18.6337 20.402 18.603 20.4025 18.5728C20.4076 18.2264 20.4957 17.8862 20.6594 17.5809C20.6756 17.5507 20.693 17.5205 20.7278 17.4602C20.7627 17.3999 20.7804 17.3697 20.7985 17.3405C20.9813 17.046 21.2318 16.7997 21.5295 16.6222C21.558 16.6052 21.5876 16.5888 21.6447 16.5572L21.6507 16.5539L22.0424 16.3368C22.694 15.9757 23.0197 15.7951 23.2567 15.5379C23.4664 15.3104 23.6249 15.0406 23.7216 14.7467C23.8309 14.4144 23.8305 14.0419 23.8288 13.2968L23.8274 12.6878C23.8257 11.9477 23.8248 11.5776 23.7152 11.2476C23.6183 10.9556 23.4602 10.6877 23.2516 10.4616C23.0159 10.2059 22.6926 10.026 22.0458 9.66622Z" stroke="#C9C9C9" stroke-width="2.16667" stroke-linecap="round" stroke-linejoin="round"/>
</svg>
