<svg width="24" height="21" viewBox="0 0 24 21" fill="none" xmlns="http://www.w3.org/2000/svg">
<path fill-rule="evenodd" clip-rule="evenodd" d="M19.1269 4.30365C19.1269 3.62848 19.1278 3.14239 19.1612 2.76254C19.1953 2.37458 19.2554 2.23226 19.2839 2.18597C19.2913 2.17403 19.2942 2.17197 19.298 2.16924C19.3059 2.16359 19.3399 2.14127 19.4247 2.11579C19.6146 2.05871 19.9447 2.01646 20.5279 2.01646C21.1112 2.01646 21.4413 2.05871 21.6312 2.11579C21.7159 2.14127 21.7493 2.16317 21.7572 2.16881C21.7611 2.17155 21.7646 2.17403 21.7719 2.18597C21.8005 2.23226 21.8605 2.37458 21.8946 2.76254C21.9281 3.14239 21.9289 3.62848 21.9289 4.30365V4.31915V4.33475V4.35046V4.36626V4.38217V4.39817V4.41428V4.43049V4.44679V4.4632V4.4797V4.4963V4.513V4.5298V4.54669V4.56368V4.58077V4.59795V4.61523V4.6326V4.65007V4.66763V4.68529V4.70303V4.72088V4.73881V4.75684V4.77495V4.79316V4.81146V4.82985V4.84834V4.86691V4.88557V4.90432V4.92315V4.94208V4.96109V4.9802V4.99938V5.01866V5.03802V5.05746V5.077V5.09661V5.11631V5.1361V5.15597V5.17592V5.19596V5.21607V5.23628V5.25656V5.27692V5.29736V5.31789V5.3385V5.35918V5.37994V5.40079V5.42171V5.44271V5.46379V5.48494V5.50617V5.52748V5.54886V5.57032V5.59186V5.61347V5.63516V5.65691V5.67875V5.70065V5.72263V5.74468V5.76681V5.789V5.81127V5.83361V5.85602V5.87849V5.90104V5.92366V5.94635V5.9691V5.99192V6.01482V6.03777V6.0608V6.08389V6.10705V6.13027V6.15356V6.17691V6.20033V6.22381V6.24736V6.27097V6.29464V6.31838V6.34217V6.36603V6.38995V6.41393V6.43797V6.46207V6.48623V6.51046V6.53473V6.55907V6.58347V6.60792V6.63243V6.657V6.68162V6.70631V6.73104V6.75583V6.78068V6.80558V6.83053V6.85554V6.88061V6.90572V6.93089V6.95611V6.98138V7.0067V7.03207V7.0575V7.08297V7.10849V7.13407V7.15969V7.18536V7.21108V7.23684V7.26266V7.28852V7.31442V7.34038V7.36637V7.39242V7.41851V7.44464V7.47082V7.49704V7.5233V7.54961V7.57596V7.60235V7.62878V7.65526V7.68177V7.70833V7.73493V7.76156V7.78824V7.81495V7.8417V7.86849V7.89532V7.92218V7.94909V7.97603V8.003V8.03001V8.05706V8.08414V8.11125V8.1384V8.16558V8.1928V8.22005V8.24733V8.27464V8.30199V8.32936V8.35677V8.38421V8.41167V8.43917V8.4667V8.49425V8.52184V8.54945V8.57709V8.60476V8.63245V8.66017V8.68791V8.71569V8.74348V8.7713V8.79915V8.82702V8.85491V8.88283V8.91077V8.93873V8.96672V8.99472V9.02275V9.0508V9.07887V9.10696V9.13507V9.16319V9.19134V9.2195V9.24769V9.27589V9.30411V9.33234V9.36059V9.38886V9.41714V9.44544V9.47375V9.50208V9.53042V9.55877V9.58714V9.61552V9.64392V9.67232V9.70074V9.72917V9.7576V9.78605V9.81451V9.84298V9.87146V9.89995V9.92844V9.95695V9.98546V10.014V10.0425V10.071V10.0996V10.1281V10.1567V10.1852V10.2138V10.2423V10.2709V10.2995V10.328V10.3566V10.3852V10.4138V10.4423V10.4709V10.4995V10.5281V10.5567V10.5852V10.6138V10.6424V10.671V10.6995V10.7281V10.7567V10.7852V10.8138V10.8423V10.8709V10.8994V10.928V10.9565V10.985V11.0135V11.0421V11.0706V11.0991V11.1275V11.156V11.1845V11.2129V11.2414V11.2698V11.2983V11.3267V11.3551V11.3835V11.4119V11.4402V11.4686V11.4969V11.5252V11.5536V11.5819V11.6101V11.6384V11.6667V11.6949V11.7231V11.7513V11.7795V11.8077V11.8358V11.8639V11.892V11.9201V11.9482V11.9762V12.0043V12.0323V12.0603V12.0882V12.1162V12.1441V12.172V12.1998V12.2277V12.2555V12.2833V12.3111V12.3388V12.3666V12.3942V12.4219V12.4496V12.4772V12.5047V12.5323V12.5598V12.5873V12.6148V12.6422V12.6696V12.697V12.7244V12.7517V12.779V12.8062V12.8334V12.8606V12.8877V12.9149V12.9419V12.969V12.996V13.023V13.0499V13.0768V13.1037V13.1305V13.1573V13.1841V13.2108V13.2374V13.2641V13.2907V13.3172V13.3437V13.3702V13.3967V13.423V13.4494V13.4757V13.502V13.5282V13.5544V13.5805V13.6066V13.6326V13.6586V13.6846V13.7105V13.7363V13.7622V13.7879V13.8136V13.8393V13.8649V13.8905V13.916V13.9415V13.9669V13.9923V14.0176V14.0429V14.0681V14.0933V14.1184V14.1435V14.1685V14.1934V14.2183V14.2432V14.268V14.2927V14.3174V14.342V14.3666V14.3911V14.4155V14.4399V14.4643V14.4885V14.5128V14.5369V14.561V14.5851V14.609V14.633V14.6568V14.6806V14.7044V14.728V14.7516V14.7752V14.7987V14.8221V14.8454V14.8687V14.892V14.9151V14.9382V14.9612V14.9842V15.0071V15.0299V15.0527V15.0753V15.098V15.1205V15.143V15.1654V15.1877V15.21V15.2322V15.2543V15.2764V15.2983V15.3203V15.3421V15.3638V15.3855V15.4071V15.4287V15.4501V15.4715V15.4928V15.5141V15.5352V15.5563V15.5773V15.5982V15.6191V15.6398V15.6605V15.6811V15.7016V15.7221V15.7424V15.7627V15.7829V15.803V15.8231V15.843V15.8629V15.8827V15.9024V15.922V15.9415V15.961V15.9803V15.9996V16.0188V16.0379V16.0569V16.0758V16.0947V16.1134V16.1321V16.1507V16.1691V16.1875V16.2058V16.224V16.2422V16.2602V16.2781V16.296V16.3137V16.3314V16.3489V16.3664V16.3838V16.401V16.4182V16.4353V16.4523V16.4692V16.486V16.5027V16.5193V16.5358V16.5522V16.5685V16.5847V16.6008V16.6168V16.6327V16.6485V16.6642V16.6798V16.6953C21.9289 17.4928 21.8824 18.0331 21.8058 18.3995C21.7289 18.7677 21.6393 18.8717 21.6241 18.8874C21.6186 18.8931 21.6136 18.8976 21.5977 18.9049C21.5771 18.9143 21.5319 18.9308 21.4435 18.9456C21.2417 18.9795 20.9771 18.9825 20.5279 18.9825C20.0718 18.9825 19.8038 18.9795 19.6005 18.9455C19.5115 18.9307 19.4668 18.9142 19.4472 18.9052C19.4326 18.8984 19.429 18.8949 19.4248 18.8905C19.4114 18.8765 19.3229 18.774 19.2471 18.4036C19.1719 18.0358 19.1269 17.4943 19.1269 16.6953V4.30365ZM20.5279 -0.000488281C19.3507 -0.000488281 18.141 0.120696 17.508 1.14827C17.2319 1.59633 17.1397 2.11314 17.0977 2.59029C17.0558 3.06617 17.0558 3.63798 17.0558 4.26644V4.30365V16.6953C17.0558 17.5443 17.1016 18.2386 17.216 18.7977C17.3298 19.3543 17.5297 19.8696 17.9117 20.2676C18.3128 20.6856 18.8022 20.8587 19.2507 20.9335C19.6478 20.9998 20.091 20.9996 20.4788 20.9995L20.5279 20.9995L20.5762 20.9995C20.9582 20.9996 21.3985 20.9998 21.7946 20.9334C22.2419 20.8585 22.7297 20.6858 23.1313 20.2707C23.5147 19.8745 23.7185 19.3605 23.8353 18.8018C23.9524 18.2413 24 17.5457 24 16.6953V16.6798V16.6642V16.6485V16.6327V16.6168V16.6008V16.5847V16.5685V16.5522V16.5358V16.5193V16.5027V16.486V16.4692V16.4523V16.4353V16.4182V16.401V16.3838V16.3664V16.3489V16.3314V16.3137V16.296V16.2781V16.2602V16.2422V16.224V16.2058V16.1875V16.1691V16.1507V16.1321V16.1134V16.0947V16.0758V16.0569V16.0379V16.0188V15.9996V15.9803V15.961V15.9415V15.922V15.9024V15.8827V15.8629V15.843V15.8231V15.803V15.7829V15.7627V15.7424V15.7221V15.7016V15.6811V15.6605V15.6398V15.6191V15.5982V15.5773V15.5563V15.5352V15.5141V15.4928V15.4715V15.4501V15.4287V15.4071V15.3855V15.3638V15.3421V15.3203V15.2983V15.2764V15.2543V15.2322V15.21V15.1877V15.1654V15.143V15.1205V15.098V15.0753V15.0527V15.0299V15.0071V14.9842V14.9612V14.9382V14.9151V14.892V14.8687V14.8454V14.8221V14.7987V14.7752V14.7516V14.728V14.7044V14.6806V14.6568V14.633V14.609V14.5851V14.561V14.5369V14.5128V14.4885V14.4643V14.4399V14.4155V14.3911V14.3666V14.342V14.3174V14.2927V14.268V14.2432V14.2183V14.1934V14.1685V14.1435V14.1184V14.0933V14.0681V14.0429V14.0176V13.9923V13.9669V13.9415V13.916V13.8905V13.8649V13.8393V13.8136V13.7879V13.7622V13.7363V13.7105V13.6846V13.6586V13.6326V13.6066V13.5805V13.5544V13.5282V13.502V13.4757V13.4494V13.423V13.3967V13.3702V13.3437V13.3172V13.2907V13.2641V13.2374V13.2108V13.1841V13.1573V13.1305V13.1037V13.0768V13.0499V13.023V12.996V12.969V12.9419V12.9149V12.8877V12.8606V12.8334V12.8062V12.779V12.7517V12.7244V12.697V12.6696V12.6422V12.6148V12.5873V12.5598V12.5323V12.5047V12.4772V12.4496V12.4219V12.3942V12.3666V12.3388V12.3111V12.2833V12.2555V12.2277V12.1998V12.172V12.1441V12.1162V12.0882V12.0603V12.0323V12.0043V11.9762V11.9482V11.9201V11.892V11.8639V11.8358V11.8077V11.7795V11.7513V11.7231V11.6949V11.6667V11.6384V11.6101V11.5819V11.5536V11.5252V11.4969V11.4686V11.4402V11.4119V11.3835V11.3551V11.3267V11.2983V11.2698V11.2414V11.2129V11.1845V11.156V11.1275V11.0991V11.0706V11.0421V11.0135V10.985V10.9565V10.928V10.8994V10.8709V10.8423V10.8138V10.7852V10.7567V10.7281V10.6995V10.671V10.6424V10.6138V10.5852V10.5567V10.5281V10.4995V10.4709V10.4423V10.4138V10.3852V10.3566V10.328V10.2995V10.2709V10.2423V10.2138V10.1852V10.1567V10.1281V10.0996V10.071V10.0425V10.014V9.98546V9.95695V9.92844V9.89995V9.87146V9.84298V9.81451V9.78605V9.7576V9.72917V9.70074V9.67232V9.64392V9.61552V9.58714V9.55877V9.53042V9.50208V9.47375V9.44544V9.41714V9.38886V9.36059V9.33234V9.30411V9.27589V9.24769V9.2195V9.19134V9.16319V9.13507V9.10696V9.07887V9.0508V9.02275V8.99472V8.96672V8.93873V8.91077V8.88283V8.85491V8.82702V8.79915V8.7713V8.74348V8.71569V8.68791V8.66017V8.63245V8.60476V8.57709V8.54945V8.52184V8.49425V8.4667V8.43917V8.41167V8.38421V8.35677V8.32936V8.30199V8.27464V8.24733V8.22005V8.1928V8.16558V8.1384V8.11125V8.08414V8.05706V8.03001V8.003V7.97603V7.94909V7.92218V7.89532V7.86849V7.8417V7.81495V7.78824V7.76156V7.73493V7.70833V7.68177V7.65526V7.62878V7.60235V7.57596V7.54961V7.5233V7.49704V7.47082V7.44464V7.41851V7.39242V7.36637V7.34038V7.31442V7.28852V7.26266V7.23684V7.21108V7.18536V7.15969V7.13407V7.10849V7.08297V7.0575V7.03207V7.0067V6.98138V6.95611V6.93089V6.90572V6.88061V6.85554V6.83053V6.80558V6.78068V6.75583V6.73104V6.70631V6.68162V6.657V6.63243V6.60792V6.58347V6.55907V6.53473V6.51046V6.48623V6.46207V6.43797V6.41393V6.38995V6.36603V6.34217V6.31838V6.29464V6.27097V6.24736V6.22381V6.20033V6.17691V6.15356V6.13027V6.10705V6.08389V6.0608V6.03777V6.01482V5.99192V5.9691V5.94635V5.92366V5.90104V5.87849V5.85602V5.83361V5.81127V5.789V5.76681V5.74468V5.72263V5.70065V5.67875V5.65691V5.63516V5.61347V5.59186V5.57032V5.54886V5.52748V5.50617V5.48494V5.46379V5.44271V5.42171V5.40079V5.37994V5.35918V5.3385V5.31789V5.29736V5.27692V5.25656V5.23628V5.21607V5.19596V5.17592V5.15597V5.1361V5.11631V5.09661V5.077V5.05746V5.03802V5.01866V4.99938V4.9802V4.96109V4.94208V4.92315V4.90432V4.88557V4.86691V4.84834V4.82985V4.81146V4.79316V4.77495V4.75684V4.73881V4.72088V4.70303V4.68529V4.66763V4.65007V4.6326V4.61523V4.59795V4.58077V4.56368V4.54669V4.5298V4.513V4.4963V4.4797V4.4632V4.44679V4.43049V4.41428V4.39817V4.38217V4.36626V4.35046V4.33475V4.31915V4.30365L24 4.26644C24 3.63798 24 3.06617 23.9581 2.59029C23.9162 2.11314 23.8239 1.59633 23.5479 1.14827C22.9148 0.120696 21.7051 -0.000488281 20.5279 -0.000488281ZM10.6343 7.53336C10.6038 7.80082 10.6026 8.11226 10.6026 8.5221L10.6026 12.8724L10.6026 17.2227C10.6026 17.2323 10.6025 17.242 10.6022 17.2517C10.572 18.2715 10.7626 18.6162 10.8759 18.7344C10.9738 18.8365 11.2198 18.9825 11.9997 18.9825C12.7621 18.9825 13.0157 18.8382 13.12 18.7306C13.2359 18.6109 13.4305 18.2656 13.3972 17.255C13.3969 17.2442 13.3967 17.2334 13.3967 17.2227V12.8724L13.3967 8.5221C13.3967 8.11226 13.3955 7.80082 13.365 7.53336C13.335 7.26976 13.2841 7.13489 13.2398 7.06293L13.2383 7.06049C13.2098 7.01336 13.0577 6.76222 11.9997 6.76222C10.9416 6.76222 10.7895 7.01336 10.761 7.06049L10.7595 7.06293C10.7152 7.13489 10.6643 7.26976 10.6343 7.53336ZM8.9828 6.02647C9.56632 5.0778 10.645 4.74527 11.9997 4.74527C13.3543 4.74527 14.433 5.0778 15.0165 6.02647C15.2763 6.44887 15.3775 6.90722 15.4235 7.31099C15.4678 7.70068 15.4678 8.11902 15.4678 8.49279L15.4678 8.5221L15.4678 12.8724V17.2069C15.5039 18.3647 15.3213 19.3972 14.6266 20.1145C13.917 20.8472 12.9185 20.9995 11.9997 20.9995C11.0719 20.9995 10.0694 20.8489 9.36186 20.1106C8.67264 19.3915 8.49928 18.3579 8.53156 17.2085L8.53155 12.8724L8.53155 8.5221L8.53154 8.49278C8.53151 8.11902 8.53148 7.70068 8.57586 7.31099C8.62186 6.90722 8.72298 6.44887 8.9828 6.02647ZM2.10406 13.4889C2.07212 13.8018 2.07107 14.1796 2.07107 14.685V17.9673C2.07107 18.5374 2.2126 18.6934 2.28121 18.7499C2.39281 18.8419 2.69488 18.9825 3.47208 18.9825C4.23192 18.9825 4.53862 18.8434 4.6563 18.7473C4.73038 18.6867 4.8731 18.5275 4.8731 17.9673V17.9589V17.9504V17.942V17.9336V17.9253V17.9169V17.9086V17.9003V17.892V17.8837V17.8754V17.8671V17.8589V17.8507V17.8425V17.8343V17.8261V17.818V17.8098V17.8017V17.7936V17.7855V17.7774V17.7694V17.7613V17.7533V17.7453V17.7373V17.7293V17.7214V17.7134V17.7055V17.6976V17.6897V17.6818V17.6739V17.6661V17.6582V17.6504V17.6426V17.6348V17.627V17.6193V17.6115V17.6038V17.5961V17.5884V17.5807V17.573V17.5653V17.5577V17.5501V17.5424V17.5348V17.5273V17.5197V17.5121V17.5046V17.497V17.4895V17.482V17.4745V17.4671V17.4596V17.4522V17.4447V17.4373V17.4299V17.4225V17.4151V17.4078V17.4004V17.3931V17.3857V17.3784V17.3711V17.3638V17.3566V17.3493V17.3421V17.3348V17.3276V17.3204V17.3132V17.306V17.2988V17.2917V17.2845V17.2774V17.2703V17.2632V17.2561V17.249V17.2419V17.2349V17.2278V17.2208V17.2138V17.2067V17.1997V17.1928V17.1858V17.1788V17.1719V17.1649V17.158V17.1511V17.1442V17.1373V17.1304V17.1235V17.1167V17.1098V17.103V17.0961V17.0893V17.0825V17.0757V17.0689V17.0622V17.0554V17.0487V17.0419V17.0352V17.0285V17.0217V17.015V17.0084V17.0017V16.995V16.9884V16.9817V16.9751V16.9684V16.9618V16.9552V16.9486V16.942V16.9354V16.9289V16.9223V16.9158V16.9092V16.9027V16.8962V16.8897V16.8832V16.8767V16.8702V16.8637V16.8572V16.8508V16.8443V16.8379V16.8315V16.825V16.8186V16.8122V16.8058V16.7994V16.7931V16.7867V16.7803V16.774V16.7676V16.7613V16.755V16.7486V16.7423V16.736V16.7297V16.7234V16.7172V16.7109V16.7046V16.6984V16.6921V16.6859V16.6796V16.6734V16.6672V16.661V16.6548V16.6486V16.6424V16.6362V16.63V16.6239V16.6177V16.6116V16.6054V16.5993V16.5931V16.587V16.5809V16.5748V16.5687V16.5626V16.5565V16.5504V16.5443V16.5382V16.5322V16.5261V16.52V16.514V16.5079V16.5019V16.4959V16.4898V16.4838V16.4778V16.4718V16.4658V16.4598V16.4538V16.4478V16.4418V16.4359V16.4299V16.4239V16.418V16.412V16.4061V16.4001V16.3942V16.3882V16.3823V16.3764V16.3705V16.3645V16.3586V16.3527V16.3468V16.3409V16.335V16.3291V16.3233V16.3174V16.3115V16.3056V16.2998V16.2939V16.288V16.2822V16.2763V16.2705V16.2646V16.2588V16.253V16.2471V16.2413V16.2355V16.2296V16.2238V16.218V16.2122V16.2064V16.2006V16.1948V16.189V16.1832V16.1774V16.1716V16.1658V16.16V16.1542V16.1485V16.1427V16.1369V16.1311V16.1254V16.1196V16.1138V16.1081V16.1023V16.0965V16.0908V16.085V16.0793V16.0735V16.0678V16.062V16.0563V16.0506V16.0448V16.0391V16.0333V16.0276V16.0219V16.0161V16.0104V16.0047V15.9989V15.9932V15.9875V15.9818V15.976V15.9703V15.9646V15.9589V15.9532V15.9474V15.9417V15.936V15.9303V15.9246V15.9188V15.9131V15.9074V15.9017V15.896V15.8903V15.8845V15.8788V15.8731V15.8674V15.8617V15.856V15.8503V15.8445V15.8388V15.8331V15.8274V15.8217V15.816V15.8102V15.8045V15.7988V15.7931V15.7874V15.7817V15.7759V15.7702V15.7645V15.7588V15.753V15.7473V15.7416V15.7359V15.7301V15.7244V15.7187V15.7129V15.7072V15.7014V15.6957V15.69V15.6842V15.6785V15.6727V15.667V15.6612V15.6555V15.6497V15.644V15.6382V15.6325V15.6267V15.6209V15.6152V15.6094V15.6036V15.5978V15.5921V15.5863V15.5805V15.5747V15.5689V15.5631V15.5573V15.5515V15.5457V15.5399V15.5341V15.5283V15.5225V15.5167V15.5109V15.505V15.4992V15.4934V15.4876V15.4817V15.4759V15.47V15.4642V15.4583V15.4525V15.4466V15.4408V15.4349V15.429V15.4231V15.4173V15.4114V15.4055V15.3996V15.3937V15.3878V15.3819V15.376V15.37V15.3641V15.3582V15.3523V15.3463V15.3404V15.3344V15.3285V15.3225V15.3166V15.3106V15.3046V15.2987V15.2927V15.2867V15.2807V15.2747V15.2687V15.2627V15.2567V15.2506V15.2446V15.2386V15.2325V15.2265V15.2204V15.2144V15.2083V15.2023V15.1962V15.1901V15.184V15.1779V15.1718V15.1657V15.1596V15.1535V15.1473V15.1412V15.1351V15.1289V15.1228V15.1166V15.1104V15.1043V15.0981V15.0919V15.0857V15.0795V15.0733V15.067V15.0608V15.0546V15.0483V15.0421V15.0358V15.0296V15.0233V15.017V15.0107V15.0044V14.9981V14.9918V14.9855V14.9792V14.9728V14.9665V14.9601V14.9538V14.9474V14.941V14.9346V14.9282V14.9218V14.9154V14.909V14.9025V14.8961V14.8897V14.8832V14.8767V14.8703V14.8638V14.8573V14.8508V14.8443V14.8377V14.8312V14.8247V14.8181V14.8115V14.805V14.7984V14.7918V14.7852V14.7786V14.772V14.7653V14.7587V14.7521V14.7454V14.7387V14.732V14.7254V14.7187V14.7119V14.7052V14.7029L4.86467 14.4629C4.8512 14.0724 4.84067 13.767 4.81075 13.4976C4.77483 13.1741 4.72072 13.0233 4.67767 12.9498L4.67685 12.9481C4.66588 12.9242 4.56041 12.6944 3.47208 12.6944C2.37899 12.6944 2.25171 12.9268 2.23419 12.9587L2.23285 12.9611C2.19085 13.0307 2.13594 13.1764 2.10406 13.4889ZM0.447348 11.9391C1.04462 10.9495 2.16268 10.6775 3.47208 10.6775C4.78388 10.6775 5.89127 10.9511 6.47663 11.9504C6.72917 12.3816 6.82286 12.858 6.86981 13.2807C6.90881 13.6319 6.92229 14.0295 6.93554 14.4202C6.93814 14.4969 6.94073 14.5733 6.94351 14.6491L6.94386 14.6606L6.94416 14.685V14.6918V14.6985V14.7052V14.7119V14.7187V14.7254V14.732V14.7387V14.7454V14.7521V14.7587V14.7653V14.772V14.7786V14.7852V14.7918V14.7984V14.805V14.8115V14.8181V14.8247V14.8312V14.8377V14.8443V14.8508V14.8573V14.8638V14.8703V14.8767V14.8832V14.8897V14.8961V14.9025V14.909V14.9154V14.9218V14.9282V14.9346V14.941V14.9474V14.9538V14.9601V14.9665V14.9728V14.9792V14.9855V14.9918V14.9981V15.0044V15.0107V15.017V15.0233V15.0296V15.0358V15.0421V15.0483V15.0546V15.0608V15.067V15.0733V15.0795V15.0857V15.0919V15.0981V15.1043V15.1104V15.1166V15.1228V15.1289V15.1351V15.1412V15.1473V15.1535V15.1596V15.1657V15.1718V15.1779V15.184V15.1901V15.1962V15.2023V15.2083V15.2144V15.2204V15.2265V15.2325V15.2386V15.2446V15.2506V15.2567V15.2627V15.2687V15.2747V15.2807V15.2867V15.2927V15.2987V15.3046V15.3106V15.3166V15.3225V15.3285V15.3344V15.3404V15.3463V15.3523V15.3582V15.3641V15.37V15.376V15.3819V15.3878V15.3937V15.3996V15.4055V15.4114V15.4173V15.4231V15.429V15.4349V15.4408V15.4466V15.4525V15.4583V15.4642V15.47V15.4759V15.4817V15.4876V15.4934V15.4992V15.505V15.5109V15.5167V15.5225V15.5283V15.5341V15.5399V15.5457V15.5515V15.5573V15.5631V15.5689V15.5747V15.5805V15.5863V15.5921V15.5978V15.6036V15.6094V15.6152V15.6209V15.6267V15.6325V15.6382V15.644V15.6497V15.6555V15.6612V15.667V15.6727V15.6785V15.6842V15.69V15.6957V15.7014V15.7072V15.7129V15.7187V15.7244V15.7301V15.7359V15.7416V15.7473V15.753V15.7588V15.7645V15.7702V15.7759V15.7817V15.7874V15.7931V15.7988V15.8045V15.8102V15.816V15.8217V15.8274V15.8331V15.8388V15.8445V15.8503V15.856V15.8617V15.8674V15.8731V15.8788V15.8845V15.8903V15.896V15.9017V15.9074V15.9131V15.9188V15.9246V15.9303V15.936V15.9417V15.9474V15.9532V15.9589V15.9646V15.9703V15.976V15.9818V15.9875V15.9932V15.9989V16.0047V16.0104V16.0161V16.0219V16.0276V16.0333V16.0391V16.0448V16.0506V16.0563V16.062V16.0678V16.0735V16.0793V16.085V16.0908V16.0965V16.1023V16.1081V16.1138V16.1196V16.1254V16.1311V16.1369V16.1427V16.1485V16.1542V16.16V16.1658V16.1716V16.1774V16.1832V16.189V16.1948V16.2006V16.2064V16.2122V16.218V16.2238V16.2296V16.2355V16.2413V16.2471V16.253V16.2588V16.2646V16.2705V16.2763V16.2822V16.288V16.2939V16.2998V16.3056V16.3115V16.3174V16.3233V16.3291V16.335V16.3409V16.3468V16.3527V16.3586V16.3645V16.3705V16.3764V16.3823V16.3882V16.3942V16.4001V16.4061V16.412V16.418V16.4239V16.4299V16.4359V16.4418V16.4478V16.4538V16.4598V16.4658V16.4718V16.4778V16.4838V16.4898V16.4959V16.5019V16.5079V16.514V16.52V16.5261V16.5322V16.5382V16.5443V16.5504V16.5565V16.5626V16.5687V16.5748V16.5809V16.587V16.5931V16.5993V16.6054V16.6116V16.6177V16.6239V16.63V16.6362V16.6424V16.6486V16.6548V16.661V16.6672V16.6734V16.6796V16.6859V16.6921V16.6984V16.7046V16.7109V16.7172V16.7234V16.7297V16.736V16.7423V16.7486V16.755V16.7613V16.7676V16.774V16.7803V16.7867V16.7931V16.7994V16.8058V16.8122V16.8186V16.825V16.8315V16.8379V16.8443V16.8508V16.8572V16.8637V16.8702V16.8767V16.8832V16.8897V16.8962V16.9027V16.9092V16.9158V16.9223V16.9289V16.9354V16.942V16.9486V16.9552V16.9618V16.9684V16.9751V16.9817V16.9884V16.995V17.0017V17.0084V17.015V17.0217V17.0285V17.0352V17.0419V17.0487V17.0554V17.0622V17.0689V17.0757V17.0825V17.0893V17.0961V17.103V17.1098V17.1167V17.1235V17.1304V17.1373V17.1442V17.1511V17.158V17.1649V17.1719V17.1788V17.1858V17.1928V17.1997V17.2067V17.2138V17.2208V17.2278V17.2349V17.2419V17.249V17.2561V17.2632V17.2703V17.2774V17.2845V17.2917V17.2988V17.306V17.3132V17.3204V17.3276V17.3348V17.3421V17.3493V17.3566V17.3638V17.3711V17.3784V17.3857V17.3931V17.4004V17.4078V17.4151V17.4225V17.4299V17.4373V17.4447V17.4522V17.4596V17.4671V17.4745V17.482V17.4895V17.497V17.5046V17.5121V17.5197V17.5273V17.5348V17.5424V17.5501V17.5577V17.5653V17.573V17.5807V17.5884V17.5961V17.6038V17.6115V17.6193V17.627V17.6348V17.6426V17.6504V17.6582V17.6661V17.6739V17.6818V17.6897V17.6976V17.7055V17.7134V17.7214V17.7293V17.7373V17.7453V17.7533V17.7613V17.7694V17.7774V17.7855V17.7936V17.8017V17.8098V17.818V17.8261V17.8343V17.8425V17.8507V17.8589V17.8671V17.8754V17.8837V17.892V17.9003V17.9086V17.9169V17.9253V17.9336V17.942V17.9504V17.9589V17.9673C6.94416 18.8489 6.71061 19.7016 5.98742 20.2924C5.30782 20.8477 4.39624 20.9995 3.47208 20.9995C2.53886 20.9995 1.62266 20.8492 0.943593 20.2898C0.221531 19.6949 1.03834e-06 18.839 1.03834e-06 17.9673V14.685V14.6524C-2.16185e-05 14.1878 -4.4778e-05 13.7127 0.0431474 13.2894C0.0874079 12.8557 0.184784 12.3742 0.447348 11.9391Z" fill="#C9C9C9"/>
</svg>
