<svg width="27" height="27" viewBox="0 0 27 27" fill="none" xmlns="http://www.w3.org/2000/svg">
<path d="M19.3687 21.7483C17.9268 20.1379 15.8317 19.1245 13.5 19.1245C11.1683 19.1245 9.07304 20.1379 7.6311 21.7483M13.5 23.6245C7.90812 23.6245 3.375 19.0914 3.375 13.4995C3.375 7.90763 7.90812 3.37451 13.5 3.37451C19.0919 3.37451 23.625 7.90763 23.625 13.4995C23.625 19.0914 19.0919 23.6245 13.5 23.6245ZM13.5 15.7495C11.636 15.7495 10.125 14.2385 10.125 12.3745C10.125 10.5106 11.636 8.99951 13.5 8.99951C15.364 8.99951 16.875 10.5106 16.875 12.3745C16.875 14.2385 15.364 15.7495 13.5 15.7495Z" stroke="#C9C9C9" stroke-width="2" stroke-linecap="round" stroke-linejoin="round"/>
</svg>
