<?xml version="1.0" encoding="UTF-8" standalone="no" ?>
<!DOCTYPE svg PUBLIC "-//W3C//DTD SVG 1.1//EN" "http://www.w3.org/Graphics/SVG/1.1/DTD/svg11.dtd">
<svg xmlns="http://www.w3.org/2000/svg" xmlns:xlink="http://www.w3.org/1999/xlink" version="1.1" width="162" height="59" viewBox="0 0 640 640" xml:space="preserve">
<desc>Created with Fabric.js 5.3.0</desc>
<defs>
</defs>
<g transform="matrix(1 0 0 1 309.4425 285.865)" id="_6N0UU2j3OP7DH_Yi7xME"  >
<path style="stroke: none; stroke-width: 162; stroke-dasharray: none; stroke-linecap: butt; stroke-dashoffset: 0; stroke-linejoin: miter; stroke-miterlimit: 4; fill: rgb(255,255,255); fill-rule: nonzero; opacity: 1;"  transform=" translate(-309.4425, -285.865)" d="M 291.18 290.44 L 289.275 287.65 L 287.655 287.65 L 287.655 290.44 L 284.685 290.44 L 284.685 279.94 L 289.485 279.94 Q 290.91 279.94 291.96 280.412 Q 293.01 280.885 293.58 281.762 Q 294.15 282.64 294.15 283.825 L 294.15 283.825 Q 294.15 284.965 293.617 285.812 Q 293.085 286.66 292.095 287.14 L 292.095 287.14 L 294.36 290.44 L 291.18 290.44 Z M 291.15 283.825 Q 291.15 283.09 290.685 282.685 Q 290.22 282.28 289.305 282.28 L 289.305 282.28 L 287.655 282.28 L 287.655 285.355 L 289.305 285.355 Q 290.22 285.355 290.685 284.957 Q 291.15 284.56 291.15 283.825 L 291.15 283.825 Z M 295.65 290.44 L 295.65 282.31 L 298.5 282.31 L 298.5 290.44 L 295.65 290.44 Z M 297.075 281.41 Q 296.295 281.41 295.815 280.975 Q 295.335 280.54 295.335 279.895 L 295.335 279.895 Q 295.335 279.25 295.815 278.815 Q 296.295 278.38 297.075 278.38 L 297.075 278.38 Q 297.855 278.38 298.335 278.792 Q 298.815 279.205 298.815 279.85 L 298.815 279.85 Q 298.815 280.525 298.335 280.967 Q 297.855 281.41 297.075 281.41 L 297.075 281.41 Z M 305.46 282.175 Q 306.57 282.175 307.477 282.692 Q 308.385 283.21 308.917 284.162 Q 309.45 285.115 309.45 286.375 L 309.45 286.375 Q 309.45 287.635 308.917 288.587 Q 308.385 289.54 307.477 290.057 Q 306.57 290.575 305.46 290.575 L 305.46 290.575 Q 304.035 290.575 303.195 289.72 L 303.195 289.72 L 303.195 293.35 L 300.345 293.35 L 300.345 282.31 L 303.06 282.31 L 303.06 283.12 Q 303.855 282.175 305.46 282.175 L 305.46 282.175 Z M 304.86 288.31 Q 305.61 288.31 306.09 287.792 Q 306.57 287.275 306.57 286.375 L 306.57 286.375 Q 306.57 285.475 306.09 284.957 Q 305.61 284.44 304.86 284.44 L 304.86 284.44 Q 304.11 284.44 303.63 284.957 Q 303.15 285.475 303.15 286.375 L 303.15 286.375 Q 303.15 287.275 303.63 287.792 Q 304.11 288.31 304.86 288.31 L 304.86 288.31 Z M 315.885 282.175 Q 316.995 282.175 317.902 282.692 Q 318.81 283.21 319.342 284.162 Q 319.875 285.115 319.875 286.375 L 319.875 286.375 Q 319.875 287.635 319.342 288.587 Q 318.81 289.54 317.902 290.057 Q 316.995 290.575 315.885 290.575 L 315.885 290.575 Q 314.46 290.575 313.62 289.72 L 313.62 289.72 L 313.62 293.35 L 310.77 293.35 L 310.77 282.31 L 313.485 282.31 L 313.485 283.12 Q 314.28 282.175 315.885 282.175 L 315.885 282.175 Z M 315.285 288.31 Q 316.035 288.31 316.515 287.792 Q 316.995 287.275 316.995 286.375 L 316.995 286.375 Q 316.995 285.475 316.515 284.957 Q 316.035 284.44 315.285 284.44 L 315.285 284.44 Q 314.535 284.44 314.055 284.957 Q 313.575 285.475 313.575 286.375 L 313.575 286.375 Q 313.575 287.275 314.055 287.792 Q 314.535 288.31 315.285 288.31 L 315.285 288.31 Z M 321.195 290.44 L 321.195 279.31 L 324.045 279.31 L 324.045 290.44 L 321.195 290.44 Z M 334.2 286.39 Q 334.2 286.42 334.155 287.095 L 334.155 287.095 L 328.245 287.095 Q 328.425 287.725 328.942 288.062 Q 329.46 288.4 330.24 288.4 L 330.24 288.4 Q 330.825 288.4 331.252 288.235 Q 331.68 288.07 332.115 287.695 L 332.115 287.695 L 333.615 289.255 Q 332.43 290.575 330.15 290.575 L 330.15 290.575 Q 328.725 290.575 327.645 290.035 Q 326.565 289.495 325.972 288.535 Q 325.38 287.575 325.38 286.36 L 325.38 286.36 Q 325.38 285.16 325.957 284.207 Q 326.535 283.255 327.555 282.715 Q 328.575 282.175 329.85 282.175 L 329.85 282.175 Q 331.065 282.175 332.055 282.677 Q 333.045 283.18 333.622 284.132 Q 334.2 285.085 334.2 286.39 L 334.2 286.39 Z M 329.865 284.2 Q 329.205 284.2 328.762 284.575 Q 328.32 284.95 328.2 285.595 L 328.2 285.595 L 331.53 285.595 Q 331.41 284.95 330.967 284.575 Q 330.525 284.2 329.865 284.2 L 329.865 284.2 Z" stroke-linecap="round" />
</g>
</svg>